<svg xmlns="http://www.w3.org/2000/svg" xml:space="preserve" width="128" height="90" data-id="lg_wZk0FiYHNBTPa5kCqg" data-version="1"><g data-padding="20"><g transform="translate(53.623 52.157)scale(.185)"><rect width="201.727" height="201.727" x="-628.046" y="-634.166" fill="#af47e8" rx="13" ry="13" transform="matrix(.63 0 0 .63 183.83 400)" vector-effect="non-scaling-stroke"/><path fill="#76309b" d="M-27.635 62.42h-28.92q-1.33 0-2.18-.86-.86-.85-.86-2.18V16.03q0-1.33.86-2.18.85-.86 2.18-.86h28.92q1.33 0 2.15.79t.82 2.06q0 1.2-.82 1.99t-2.15.79h-25.95V34.7h18.73q1.33 0 2.16.79.82.79.82 2.06 0 1.2-.82 1.99-.83.79-2.16.79h-18.73v16.45h25.95q1.33 0 2.15.79.82.8.82 2 0 1.26-.82 2.05-.82.8-2.15.8m28.92 0q-1.9 0-2.72-1.9l-18.67-42.97q-.82-2.03-.16-3.29.67-1.27 2.5-1.27 2.03 0 2.79 1.84l16.64 39.93h-.89l16.84-39.87q.44-1.08 1.07-1.49t1.71-.41q1.77 0 2.44 1.27.66 1.26-.04 2.85L4.005 60.52q-.44.95-1.11 1.42-.66.48-1.61.48m61.38 0h-28.92q-1.33 0-2.18-.86-.85-.85-.85-2.18V16.03q0-1.33.85-2.18.85-.86 2.18-.86h28.92q1.33 0 2.15.79.83.79.83 2.06 0 1.2-.83 1.99-.82.79-2.15.79h-25.94V34.7h18.73q1.33 0 2.15.79t.82 2.06q0 1.2-.82 1.99t-2.15.79h-18.73v16.45h25.94q1.33 0 2.15.79.83.8.83 2 0 1.26-.83 2.05-.82.8-2.15.8m15.13 0q-1.27 0-2.12-.86-.86-.85-.86-2.18V16.03q0-1.33.86-2.18.85-.86 2.12-.86 1.39 0 2.34 1.08l28.48 37.71V16.03q0-1.33.85-2.18.85-.86 2.12-.86 1.33 0 2.15.86.82.85.82 2.18v43.35q0 1.33-.82 2.18-.82.86-2.15.86-.57 0-1.23-.26-.67-.25-1.05-.76l-28.48-37.71v35.69q0 1.33-.85 2.18-.85.86-2.18.86m63.91 0q-1.2 0-2.09-.89-.88-.89-.88-2.15V12.99h6.01v46.39q0 1.26-.85 2.15-.86.89-2.19.89m17.15-43.86h-34.23q-1.27 0-2.03-.79t-.76-1.99q0-1.27.76-2.03t2.03-.76h34.23q1.27 0 2.03.76t.76 2.03q0 1.2-.76 1.99t-2.03.79m51.45 44.49q-5.57 0-10.19-1.87t-7.94-5.28q-3.32-3.42-5.19-8.04t-1.87-10.19q0-5.5 1.87-10.12t5.19-8.04 7.94-5.28q4.62-1.87 10.19-1.87 5.51 0 10.13 1.87 4.62 1.86 7.97 5.28t5.22 8.04 1.87 10.12q0 5.57-1.87 10.19t-5.22 8.04q-3.35 3.41-7.97 5.28t-10.13 1.87m0-5.51q4.18 0 7.72-1.52 3.55-1.51 6.17-4.2 2.63-2.69 4.02-6.3t1.39-7.85q0-4.17-1.39-7.81t-4.02-6.33q-2.62-2.69-6.17-4.18-3.54-1.49-7.72-1.49-4.24 0-7.78 1.49-3.55 1.49-6.11 4.18t-4.02 6.33q-1.45 3.64-1.45 7.81 0 4.24 1.45 7.85 1.46 3.61 4.02 6.3t6.11 4.2q3.54 1.52 7.78 1.52m38.48 4.88q-1.33 0-2.19-.86-.85-.85-.85-2.18V16.03q0-1.33.85-2.18.86-.86 2.19-.86h11.51q4.69 0 8.36 1.96 3.67 1.97 5.73 5.45 2.05 3.48 2.05 8.03 0 4.31-2.05 7.66-2.06 3.35-5.73 5.25t-8.36 1.9h-8.54v16.14q0 1.33-.82 2.18-.82.86-2.15.86m26.32 0q-.88 0-1.52-.35-.63-.35-1.14-1.11l-11.64-18.73 5.95-1.65 10.69 17.22q1.08 1.7.32 3.16t-2.66 1.46m-23.35-43.8v18.99h8.54q3.04 0 5.35-1.17t3.64-3.26 1.33-4.75q0-2.84-1.33-5.09t-3.64-3.48q-2.31-1.24-5.35-1.24Zm55.82 44.43q-5.13 0-9.59-1.93t-7.78-5.41q-3.33-3.48-5.23-8.1-1.89-4.62-1.89-9.94 0-5.25 1.86-9.84 1.87-4.59 5.22-8.07 3.36-3.48 7.79-5.44t9.62-1.96q4.81 0 8.38 1.3 3.58 1.29 7.12 4.2.51.38.73.86.22.47.19.92-.03.44-.16.95-.06.95-.79 1.58t-1.77.66q-1.05.03-2-.73-2.4-2.08-5.03-3.16-2.62-1.08-6.67-1.08-3.86 0-7.25 1.59-3.38 1.58-5.95 4.3-2.56 2.72-4.02 6.3-1.45 3.57-1.45 7.62 0 4.12 1.45 7.72 1.46 3.61 4.02 6.33 2.57 2.72 5.95 4.24 3.39 1.52 7.25 1.52 3.35 0 6.29-1.11 2.95-1.11 5.67-3.13 1.01-.76 2.02-.66 1.01.09 1.74.82t.73 1.99q0 .63-.19 1.17t-.76.98q-3.29 2.85-7.24 4.18-3.96 1.33-8.26 1.33m16.45-22.97v15.31l-5.82-1.14V42.42h-9.11q-1.33 0-2.19-.76-.85-.76-.85-1.9t.85-1.9q.86-.76 2.19-.76h11.96q1.32 0 2.15.83.82.82.82 2.15" font-family="Comfortaa" font-size="63.283"/><path fill="#76309b" d="M-61.865 106.34q-.49 0-.82-.32-.32-.32-.32-.81V84.67q0-.49.32-.81.33-.33.82-.33.5 0 .82.33.32.32.32.81v20.54q0 .49-.32.81t-.82.32m20.39 0q-.5 0-.82-.32t-.32-.78v-7.6q0-1.81-.69-2.98-.68-1.17-1.87-1.75-1.18-.58-2.67-.58-1.43 0-2.58.55-1.16.56-1.83 1.52t-.67 2.19h-1.61q.06-1.84 1-3.29.93-1.44 2.48-2.27 1.55-.84 3.45-.84 2.07 0 3.7.86 1.64.87 2.59 2.53.95 1.67.95 4.06v7.6q0 .46-.32.78t-.79.32m-12.56 0q-.53 0-.83-.3-.31-.31-.31-.8V91.51q0-.53.31-.83.3-.31.83-.31.5 0 .8.31.31.3.31.83v13.73q0 .49-.31.8-.3.3-.8.3m20.62 0q-.44 0-.76-.3-.32-.31-.32-.83V90.4q0-2.05.7-3.59.7-1.55 2.07-2.41 1.38-.87 3.36-.87.5 0 .82.3.32.29.32.73 0 .43-.32.73-.32.29-.82.29-1.31 0-2.17.6t-1.29 1.66q-.42 1.07-.42 2.44v14.93q0 .52-.31.83-.3.3-.86.3m4.67-13.43h-7.62q-.47 0-.74-.28-.28-.28-.28-.68 0-.44.28-.72.27-.28.74-.28h7.62q.47 0 .75.28t.28.72q0 .4-.28.68t-.75.28m5.64 13.43q-.53 0-.83-.3-.31-.31-.31-.83v-13.7q0-.53.31-.83.3-.31.83-.31.5 0 .8.31.31.3.31.83v13.7q0 .52-.31.83-.3.3-.8.3m-.03-19.01q-.64 0-1.11-.47-.47-.46-.47-1.14 0-.73.49-1.15.48-.42 1.12-.42.61 0 1.1.42.48.42.48 1.15 0 .68-.47 1.14-.47.47-1.14.47m20.56 19.01q-.49 0-.81-.32-.33-.32-.33-.78v-7.6q0-1.81-.68-2.98-.69-1.17-1.87-1.75t-2.67-.58q-1.44 0-2.59.55-1.15.56-1.82 1.52-.68.96-.68 2.19h-1.6q.06-1.84.99-3.29.94-1.44 2.48-2.27 1.55-.84 3.45-.84 2.07 0 3.71.86 1.63.87 2.58 2.53.95 1.67.95 4.06v7.6q0 .46-.32.78t-.79.32m-12.56 0q-.52 0-.83-.3-.3-.31-.3-.8V91.51q0-.53.3-.83.31-.31.83-.31.5 0 .81.31.3.3.3.83v13.73q0 .49-.3.8-.31.3-.81.3m20.24 0q-.52 0-.83-.3-.3-.31-.3-.83v-13.7q0-.53.3-.83.31-.31.83-.31.5 0 .81.31.3.3.3.83v13.7q0 .52-.3.83-.31.3-.81.3m-.02-19.01q-.65 0-1.11-.47-.47-.46-.47-1.14 0-.73.48-1.15t1.12-.42q.62 0 1.1.42t.48 1.15q0 .68-.47 1.14-.46.47-1.13.47m13.72 19.01h-.61q-1.55 0-2.76-.73t-1.91-2-.7-2.9V86.43q0-.5.3-.82.31-.32.81-.32.49 0 .81.32t.32.82v14.28q0 1.49.88 2.44t2.25.95h.79q.47 0 .76.32t.29.82q0 .49-.35.8-.35.3-.88.3m-.44-13.43h-7.44q-.44 0-.73-.28-.3-.28-.3-.68 0-.44.3-.72.29-.28.73-.28h7.44q.44 0 .74.28.29.28.29.72 0 .4-.29.68-.3.28-.74.28m8.07 20.39q-.24 0-.53-.12-.99-.44-.55-1.4l9.43-20.8q.44-.93 1.4-.52.99.41.56 1.37l-9.47 20.79q-.29.68-.84.68m3.24-7.45q-.44.2-.82.07t-.61-.57l-6.52-13.49q-.2-.44-.05-.82.14-.38.58-.58.44-.21.82-.08t.58.57l6.4 13.5q.23.43.14.81-.08.38-.52.59m42.26.49h-13.7q-.49 0-.81-.32-.33-.32-.33-.81V84.67q0-.49.33-.81.32-.33.81-.33h13.7q.47 0 .8.31.34.31.34.8 0 .44-.34.76-.33.32-.8.32h-12.56v8.07h9.14q.5 0 .82.32t.32.79q0 .46-.32.78-.32.33-.82.33h-9.14v8.14h12.56q.47 0 .8.33.34.32.34.76 0 .49-.34.8-.33.3-.8.3m18.78 0q-.49 0-.82-.32-.32-.32-.32-.78v-7.6q0-1.81-.68-2.98-.69-1.17-1.87-1.75-1.19-.58-2.68-.58-1.43 0-2.58.55-1.15.56-1.83 1.52-.67.96-.67 2.19h-1.6q.05-1.84.99-3.29.93-1.44 2.48-2.27 1.55-.84 3.45-.84 2.07 0 3.71.86 1.63.87 2.58 2.53.95 1.67.95 4.06v7.6q0 .46-.32.78t-.79.32m-12.56 0q-.52 0-.83-.3-.31-.31-.31-.8V91.51q0-.53.31-.83.31-.31.83-.31.5 0 .81.31.3.3.3.83v13.73q0 .49-.3.8-.31.3-.81.3m25.5 0h-.61q-1.55 0-2.76-.73t-1.92-2q-.7-1.27-.7-2.9V86.43q0-.5.31-.82t.8-.32q.5 0 .82.32t.32.82v14.28q0 1.49.88 2.44.87.95 2.25.95h.79q.46 0 .76.32.29.32.29.82 0 .49-.35.8-.35.3-.88.3m-.44-13.43h-7.45q-.43 0-.73-.28-.29-.28-.29-.68 0-.44.29-.72.3-.28.73-.28h7.45q.44 0 .73.28t.29.72q0 .4-.29.68t-.73.28m12.56 13.58q-2.36 0-4.19-1.04-1.83-1.03-2.86-2.87-1.04-1.84-1.04-4.21 0-2.39.98-4.22.98-1.82 2.7-2.88 1.72-1.05 3.97-1.05 2.22 0 3.87 1.01t2.56 2.79q.9 1.78.9 4.06 0 .47-.29.74-.29.28-.76.28h-12.41v-1.87h12.65l-1.26.91q.03-1.7-.61-3.04-.65-1.34-1.83-2.1t-2.82-.76q-1.66 0-2.92.79-1.25.78-1.94 2.17t-.69 3.17.78 3.16q.77 1.37 2.12 2.16 1.34.79 3.09.79 1.05 0 2.12-.37 1.07-.36 1.71-.92.32-.26.73-.28.41-.01.7.22.38.35.39.76.02.41-.33.7-.97.82-2.46 1.36t-2.86.54m12.91-9.99h-1.28q.08-1.81.95-3.24.86-1.43 2.24-2.25 1.39-.82 3.09-.82 1.34 0 2.07.38t.55 1.11q-.11.44-.39.59-.28.14-.67.11-.4-.03-.89-.05-1.64-.15-2.91.33t-2.01 1.48q-.75.99-.75 2.36m-1.11 9.84q-.52 0-.82-.29-.29-.29-.29-.81V91.48q0-.53.29-.82.3-.29.82-.29.53 0 .82.29t.29.82v13.76q0 .52-.29.81t-.82.29m13.41 6.84q-.53 0-.83-.31-.31-.3-.31-.83V98.25q.03-2.27 1.09-4.1 1.07-1.82 2.9-2.88 1.82-1.05 4.1-1.05 2.34 0 4.18 1.07 1.84 1.06 2.9 2.9 1.07 1.84 1.07 4.18 0 2.31-1.04 4.15t-2.82 2.9q-1.78 1.07-4.03 1.07-1.96 0-3.55-.83t-2.55-2.21v8.59q0 .53-.31.83-.31.31-.8.31m6.95-8.73q1.69 0 3.04-.79 1.34-.79 2.11-2.18.78-1.39.78-3.11 0-1.75-.78-3.12-.77-1.38-2.11-2.18-1.35-.8-3.04-.8-1.67 0-3.01.8t-2.1 2.18q-.76 1.37-.76 3.12 0 1.72.76 3.11t2.1 2.18 3.01.79m14.78-7.95h-1.29q.09-1.81.95-3.24t2.25-2.25 3.08-.82q1.35 0 2.08.38t.55 1.11q-.12.44-.39.59-.28.14-.68.11-.39-.03-.89-.05-1.63-.15-2.9.33t-2.02 1.48q-.74.99-.74 2.36m-1.11 9.84q-.53 0-.82-.29t-.29-.81V91.48q0-.53.29-.82t.82-.29q.52 0 .82.29.29.29.29.82v13.76q0 .52-.29.81-.3.29-.82.29m13.87 0q-.52 0-.83-.3-.31-.31-.31-.83v-13.7q0-.53.31-.83.31-.31.83-.31.5 0 .8.31.31.3.31.83v13.7q0 .52-.31.83-.3.3-.8.3m-.03-19.01q-.64 0-1.11-.47-.46-.46-.46-1.14 0-.73.48-1.15t1.12-.42q.61 0 1.1.42.48.42.48 1.15 0 .68-.47 1.14-.47.47-1.14.47m12.44 19.16q-1.72 0-3.41-.58-1.7-.59-2.75-1.76-.32-.35-.26-.78.06-.44.44-.76.41-.3.84-.24.44.06.73.38.71.82 1.86 1.26t2.55.44q2.17 0 3.13-.75.96-.74.99-1.79 0-1.06-.99-1.74-.99-.69-3.27-1.07-2.95-.47-4.32-1.63-1.38-1.17-1.38-2.78 0-1.49.79-2.48t2.1-1.49q1.32-.5 2.9-.5 1.95 0 3.37.67 1.42.68 2.29 1.82.29.37.24.78-.06.41-.47.68-.35.2-.8.13-.46-.08-.78-.43-.73-.84-1.69-1.24-.97-.39-2.22-.39-1.61 0-2.57.65-.97.66-.97 1.66 0 .67.37 1.16.36.5 1.25.88.9.38 2.5.64 2.19.35 3.46 1.04t1.81 1.61.54 2q0 1.37-.8 2.41-.8 1.03-2.22 1.62-1.42.58-3.26.58m17.41 0q-2.36 0-4.19-1.04-1.82-1.03-2.86-2.87t-1.04-4.21q0-2.39.98-4.22.98-1.82 2.7-2.88 1.73-1.05 3.97-1.05 2.22 0 3.87 1.01t2.56 2.79.91 4.06q0 .47-.3.74-.29.28-.76.28h-12.41v-1.87h12.65l-1.26.91q.03-1.7-.61-3.04t-1.83-2.1q-1.18-.76-2.82-.76-1.66 0-2.92.79-1.25.78-1.94 2.17t-.69 3.17.78 3.16q.77 1.37 2.12 2.16 1.34.79 3.09.79 1.05 0 2.12-.37 1.07-.36 1.71-.92.32-.26.73-.28.41-.01.7.22.38.35.39.76.02.41-.33.7-.97.82-2.46 1.36-1.48.54-2.86.54m16.27 0q-1.72 0-3.42-.58-1.69-.59-2.74-1.76-.32-.35-.26-.78.05-.44.43-.76.41-.3.85-.24t.73.38q.7.82 1.86 1.26 1.15.44 2.55.44 2.16 0 3.13-.75.96-.74.99-1.79 0-1.06-.99-1.74-1-.69-3.28-1.07-2.95-.47-4.32-1.63-1.37-1.17-1.37-2.78 0-1.49.79-2.48t2.1-1.49q1.32-.5 2.89-.5 1.96 0 3.38.67 1.41.68 2.29 1.82.29.37.23.78t-.47.68q-.35.2-.8.13-.45-.08-.77-.43-.73-.84-1.7-1.24-.96-.39-2.22-.39-1.6 0-2.57.65-.96.66-.96 1.66 0 .67.36 1.16.37.5 1.26.88t2.5.64q2.19.35 3.46 1.04t1.81 1.61.54 2q0 1.37-.8 2.41-.81 1.03-2.22 1.62-1.42.58-3.26.58" font-family="Comfortaa" font-size="29.207"/><path fill="#76309b" d="M-167.075 124.9h-21.8q-1 0-1.64-.64-.65-.65-.65-1.65V89.93q0-1 .65-1.64.64-.65 1.64-.65h21.8q1 0 1.63.6.62.6.62 1.55 0 .91-.62 1.5-.63.6-1.63.6h-19.56v12.12h14.12q1.01 0 1.63.59.62.6.62 1.55 0 .91-.62 1.51-.62.59-1.63.59h-14.12v12.41h19.56q1 0 1.63.59.62.6.62 1.51 0 .95-.62 1.55-.63.59-1.63.59m26.38.48q-4.19 0-7.68-1.41-3.48-1.41-5.98-3.98-2.51-2.58-3.92-6.06-1.4-3.48-1.4-7.68 0-4.15 1.4-7.63 1.41-3.49 3.92-6.06 2.5-2.58 5.98-3.99 3.49-1.4 7.68-1.4 4.15 0 7.64 1.4 3.48 1.41 6.01 3.99 2.53 2.57 3.93 6.06 1.41 3.48 1.41 7.63 0 4.2-1.41 7.68-1.4 3.48-3.93 6.06-2.53 2.57-6.01 3.98-3.49 1.41-7.64 1.41m0-4.15q3.15 0 5.82-1.15 2.68-1.14 4.66-3.17t3.02-4.75q1.05-2.71 1.05-5.91 0-3.15-1.05-5.89-1.04-2.75-3.02-4.77-1.98-2.03-4.66-3.15-2.67-1.12-5.82-1.12-3.19 0-5.86 1.12-2.68 1.12-4.61 3.15-1.93 2.02-3.03 4.77-1.09 2.74-1.09 5.89 0 3.2 1.09 5.91 1.1 2.72 3.03 4.75t4.61 3.17q2.67 1.15 5.86 1.15" font-family="Comfortaa" font-size="47.705"/><path fill="#fff" d="M-164.395 122.22h-21.8q-1 0-1.65-.64-.64-.64-.64-1.65V87.26q0-1.01.64-1.65.65-.64 1.65-.64h21.8q1 0 1.62.59.62.6.62 1.55 0 .91-.62 1.51-.62.59-1.62.59h-19.56v12.12h14.12q1 0 1.62.6.62.59.62 1.55 0 .9-.62 1.5t-1.62.6h-14.12v12.4h19.56q1 0 1.62.6.62.59.62 1.5 0 .95-.62 1.55-.62.59-1.62.59m26.38.48q-4.2 0-7.68-1.41-3.48-1.4-5.99-3.98-2.5-2.57-3.91-6.06-1.41-3.48-1.41-7.68 0-4.15 1.41-7.63t3.91-6.06q2.51-2.58 5.99-3.98 3.48-1.41 7.68-1.41 4.15 0 7.63 1.41 3.49 1.4 6.02 3.98 2.52 2.58 3.93 6.06t1.41 7.63q0 4.2-1.41 7.68-1.41 3.49-3.93 6.06-2.53 2.58-6.02 3.98-3.48 1.41-7.63 1.41m0-4.15q3.15 0 5.82-1.14 2.67-1.15 4.65-3.18 1.98-2.02 3.03-4.74t1.05-5.92q0-3.15-1.05-5.89t-3.03-4.77-4.65-3.15-5.82-1.12q-3.19 0-5.87 1.12-2.67 1.12-4.6 3.15t-3.03 4.77-1.1 5.89q0 3.2 1.1 5.92t3.03 4.74q1.93 2.03 4.6 3.18 2.68 1.14 5.87 1.14" font-family="Comfortaa" font-size="47.705"/></g><path fill="transparent" stroke="transparent" stroke-width=".192" d="M12.5 51.798h103v24.404h-103z"/></g></svg>